<svg width="161" height="51" viewBox="0 0 161 51" fill="none" xmlns="http://www.w3.org/2000/svg">
<g id="XMLID_1_">
<path id="XMLID_30_" d="M84.8003 13.4038C84.8003 15.2007 83.3534 16.6507 81.5534 16.6507C79.7534 16.6507 78.3065 15.2038 78.3065 13.4038C78.3065 11.6069 79.7097 10.1569 81.5534 10.1569C83.394 10.2038 84.8003 11.6507 84.8003 13.4038ZM71.3784 19.9381C71.3784 20.2444 71.3784 20.7288 71.3784 20.7288C71.3784 20.7288 69.8441 18.71 66.5097 18.71C61.0722 18.71 56.816 22.8756 56.816 28.6225C56.816 34.3256 61.0254 38.5349 66.5097 38.5349C69.8441 38.5349 71.3784 36.4725 71.3784 36.4725V37.3068C71.3784 37.7006 71.6847 38.0099 72.0816 38.0099H76.1159V19.2381C76.1159 19.2381 72.4316 19.2381 72.0816 19.2381C71.6847 19.2381 71.3784 19.5881 71.3784 19.9381ZM71.3784 32.0006C70.6316 33.0975 69.141 34.0631 67.3441 34.0631C64.141 34.0631 61.6847 32.0443 61.6847 28.6694C61.6847 25.2475 64.141 23.2756 67.3441 23.2756C69.0972 23.2756 70.6785 24.285 71.3784 25.3381V32.0006ZM79.1409 19.2381H83.9222V38.0537H79.1409V19.2381ZM150.85 18.7538C147.559 18.7538 145.981 20.7725 145.981 20.7725V10.2038H141.2V38.0537C141.2 38.0537 144.884 38.0537 145.234 38.0537C145.628 38.0537 145.938 37.7037 145.938 37.3506V36.5162C145.938 36.5162 147.472 38.5787 150.806 38.5787C156.244 38.5787 160.5 34.3693 160.5 28.6662C160.5 22.9225 156.244 18.7538 150.85 18.7538ZM150.059 33.9756C148.219 33.9756 146.769 33.01 146.025 31.9131V25.2037C146.772 24.1944 148.394 23.1413 150.059 23.1413C153.263 23.1413 155.719 25.16 155.719 28.535C155.719 32.0006 153.263 33.9756 150.059 33.9756ZM138.7 26.9131V38.0974H133.919V27.4412C133.919 24.3287 132.909 23.1006 130.234 23.1006C128.788 23.1006 127.297 23.8475 126.331 24.9412V38.0537H121.55V19.2381H125.366C125.76 19.2381 126.069 19.5881 126.069 19.9413V20.7319C127.472 19.285 129.316 18.7131 131.156 18.7131C133.263 18.7131 135.016 19.3256 136.419 20.51C138.044 21.9569 138.7 23.7537 138.7 26.9131ZM109.841 18.7538C106.55 18.7538 104.972 20.7725 104.972 20.7725V10.2038H100.191V38.0537C100.191 38.0537 103.875 38.0537 104.225 38.0537C104.619 38.0537 104.928 37.7037 104.928 37.3506V36.5162C104.928 36.5162 106.463 38.5787 109.797 38.5787C115.235 38.5787 119.491 34.3693 119.491 28.6662C119.535 22.9225 115.281 18.7538 109.841 18.7538ZM109.053 33.9756C107.213 33.9756 105.763 33.01 105.019 31.9131V25.2037C105.766 24.1944 107.388 23.1413 109.053 23.1413C112.256 23.1413 114.713 25.16 114.713 28.535C114.71 32.0006 112.253 33.9756 109.053 33.9756ZM96.0252 18.7538C97.4721 18.7538 98.219 19.0163 98.219 19.0163V23.4475C98.219 23.4475 94.2284 22.0881 91.7284 24.9381V38.0943H86.9472V19.235C86.9472 19.235 90.6315 19.235 90.9815 19.235C91.3753 19.235 91.6846 19.585 91.6846 19.9381V20.7288C92.6065 19.6756 94.5346 18.7538 96.0252 18.7538ZM46.1598 36.3412C45.8973 35.7287 45.6785 35.0693 45.4129 34.5443C45.0192 33.6225 44.6223 32.7912 44.2723 32.0006L44.2285 31.9568C40.7629 24.4569 37.0786 16.8694 33.1755 9.36943L33.0442 9.06318C32.6505 8.3163 32.2536 7.52881 31.8598 6.69444C31.3786 5.77257 30.8505 4.85382 30.063 3.93194C28.4849 1.9132 26.1599 0.819458 23.7036 0.819458C21.2036 0.819458 18.9661 1.91633 17.3005 3.8007C16.5536 4.72257 15.9849 5.64131 15.5036 6.56318C15.1099 7.35381 14.713 8.1413 14.3193 8.93193L14.188 9.23818C10.3287 16.7382 6.60056 24.3256 3.13494 31.8256L3.09119 31.9131C2.74119 32.7037 2.34432 33.5787 1.95057 34.4568C1.68807 35.0256 1.46932 35.5975 1.2037 36.2537C0.544327 38.0943 0.369328 39.8506 0.591202 41.6474C1.15995 45.4193 3.65994 48.5318 7.0818 49.938C8.39742 50.5068 9.71305 50.7287 11.1162 50.7287C11.5099 50.7287 12.038 50.6849 12.4318 50.6412C14.0974 50.4224 15.7661 49.8943 17.4318 48.9318C19.4943 47.7912 21.4224 46.1255 23.6161 43.7131C25.8099 46.1255 27.8255 47.7474 29.8005 48.9318C31.4661 49.8974 33.1348 50.4224 34.8005 50.6412C35.1942 50.6849 35.7223 50.7287 36.1161 50.7287C37.5192 50.7287 38.9223 50.4662 40.1504 49.938C43.6598 48.5349 46.116 45.3318 46.641 41.6474C47.0348 39.9381 46.816 38.1849 46.1598 36.3412ZM23.6161 38.9287C20.8974 35.5068 19.1849 32.3068 18.5724 29.6319C18.3099 28.4912 18.2661 27.4819 18.4411 26.5631C18.5286 25.7725 18.8349 25.0725 19.2318 24.4569C20.1974 23.0975 21.7755 22.2631 23.6161 22.2631C25.4567 22.2631 27.1255 23.0538 28.0005 24.4569C28.3942 25.0694 28.7036 25.7725 28.7911 26.5631C28.9224 27.485 28.8786 28.4944 28.6599 29.6319C28.088 32.3068 26.3349 35.51 23.6161 38.9287ZM43.5723 41.2974C43.2223 43.8849 41.4661 46.1662 39.0098 47.1318C37.8254 47.613 36.5098 47.7912 35.1942 47.613C33.9223 47.4818 32.6942 47.0443 31.3786 46.2974C29.5817 45.288 27.7817 43.7537 25.6755 41.4287C28.9661 37.3943 30.9817 33.6662 31.7286 30.3756C32.0786 28.8412 32.1223 27.4381 31.9911 26.1225C31.7723 24.8506 31.3317 23.71 30.6317 22.7006C29.0974 20.4631 26.4661 19.1475 23.5692 19.1475C20.6724 19.1475 18.088 20.5069 16.5068 22.7006C15.8036 23.71 15.3661 24.8506 15.1474 26.1225C14.9287 27.4381 15.0162 28.885 15.4099 30.3756C16.1568 33.6662 18.2161 37.4381 21.463 41.4724C19.4005 43.7537 17.5599 45.3318 15.7599 46.3412C14.4443 47.088 13.2162 47.4818 11.9443 47.6568C10.5849 47.788 9.31305 47.613 8.12868 47.1755C5.67243 46.1662 3.91932 43.9287 3.56619 41.3412C3.43494 40.0693 3.52244 38.8412 4.00369 37.4381C4.13494 36.9568 4.39744 36.4287 4.66306 35.86C5.01306 35.0693 5.40993 34.1943 5.80368 33.36L5.84743 33.2725C9.31305 25.8162 12.9974 18.2288 16.8568 10.8163L16.988 10.51C17.3818 9.76317 17.7786 8.97568 18.1724 8.2288C18.5661 7.43818 19.0068 6.69444 19.5755 6.03506C20.6286 4.85069 22.0318 4.19445 23.5661 4.19445C25.1005 4.19445 26.5036 4.85382 27.5567 6.03506C28.1255 6.69444 28.5661 7.43818 28.9599 8.2288C29.3536 8.97568 29.7505 9.76317 30.1442 10.51L30.2755 10.8163C34.0911 18.2725 37.7754 25.86 41.2411 33.3162V33.36C41.6348 34.1506 41.9879 35.0693 42.3817 35.86C42.6442 36.4725 42.8629 36.9568 43.041 37.4381C43.616 38.7537 43.791 39.9818 43.5723 41.2974Z" fill="#FF5A5F"/>
</g>
</svg>
