<svg width="191" height="38" viewBox="0 0 191 38" fill="none" xmlns="http://www.w3.org/2000/svg">
<g id="Group">
<path id="Vector" d="M12.5347 36.9318H5.3774V19.0827H0.5V13.2736H5.3774V9.14053C5.3774 4.2423 7.53241 0.728699 14.6741 0.728699C16.1837 0.728699 18.5573 1.03061 18.5573 1.03061V6.42855H16.064C13.529 6.42855 12.5347 7.19894 12.5347 9.33313V13.2736H18.4584L17.9327 19.0827H12.5347V36.9318ZM28.9628 12.8103C28.8587 12.8103 28.7494 12.8155 28.6453 12.8155C22.0085 12.8155 18.9685 17.8074 18.9685 24.8971C18.9685 33.8242 22.909 37.4003 28.6973 37.4003C32.0079 37.4003 34.1837 36.0053 35.5059 33.4078V36.937H42.3145V13.2788H35.5059V16.9173C34.4284 14.5749 32.1901 12.8415 28.9628 12.8103ZM30.6962 18.4008C33.4862 18.4008 35.1571 20.3476 35.1571 23.653L35.1623 27.0313C35.1623 29.2592 33.7777 31.867 30.6962 31.867C25.9541 31.867 26.079 26.745 26.079 25.0376C26.079 19.3014 28.6036 18.4008 30.6962 18.4008ZM45.0681 25.1105C45.0681 22.2372 44.9328 12.8311 57.1861 12.8311C62.1052 12.8311 64.1613 14.3979 64.1613 14.3979L62.5112 19.52C62.5112 19.52 60.4603 18.3904 57.7847 18.3904C54.3596 18.3904 52.1786 20.3737 52.1786 23.8664L52.1838 26.3702C52.1838 29.7276 54.292 31.9659 57.7951 31.9659C60.2312 31.9659 62.4747 30.826 62.4747 30.826L64.1196 35.8387C64.1196 35.8387 62.2405 37.4107 57.2226 37.4107C45.547 37.4055 45.0681 28.9677 45.0681 25.1105ZM104.086 12.8155C110.723 12.8155 113.81 17.8074 113.81 24.8971C113.81 33.8242 109.869 37.4003 104.081 37.4003C100.77 37.4003 98.3239 36.0053 97.0017 33.4078V36.937L90.2764 36.9318V1.44704L97.413 0.822399V16.5946C98.4436 13.8357 101.827 12.8155 104.086 12.8155ZM102.082 18.4008C99.2921 18.4008 97.413 20.3476 97.413 23.653L97.4078 27.0313C97.4025 29.2592 98.7091 31.867 102.082 31.867C106.824 31.867 106.699 26.745 106.699 25.0376C106.699 19.3014 104.175 18.4008 102.082 18.4008ZM76.5448 12.8363C69.0178 12.8363 65.041 16.9433 65.041 24.236V25.5894C65.041 35.0579 70.6211 37.494 77.2787 37.494C83.749 37.494 86.6744 35.6825 86.6744 35.6825L85.3366 30.8624C85.3366 30.8624 81.8906 32.3303 78.1324 32.3303C74.2336 32.3303 72.5575 31.3361 72.1254 27.5882H87.2417V23.7207C87.2469 15.819 82.7808 12.8363 76.5448 12.8363ZM76.727 17.6617C79.3348 17.6617 81.0214 19.2597 80.9277 22.9659H72.1411C72.292 19.0671 74.1139 17.6617 76.727 17.6617ZM128.041 12.8051C120.311 12.8051 116.241 17.162 116.241 24.97C116.241 35.6825 123.257 37.4107 128.057 37.4107C135.084 37.4107 139.758 33.6264 139.758 25.0689C139.753 16.1625 134.501 12.8051 128.041 12.8051ZM127.942 18.4216C131.341 18.4216 132.69 20.9671 132.69 23.8612V26.3494C132.69 29.8578 130.805 31.8879 127.932 31.8879C125.241 31.8879 123.351 29.9879 123.351 26.3494V23.8612C123.351 19.978 125.6 18.4216 127.942 18.4216ZM153.974 12.8051C146.244 12.8051 142.174 17.162 142.174 24.97C142.174 35.6825 149.19 37.4107 153.99 37.4107C161.017 37.4107 165.691 33.6264 165.691 25.0689C165.686 16.1625 160.434 12.8051 153.974 12.8051ZM153.88 18.4216C157.28 18.4216 158.628 20.9671 158.628 23.8612V26.3494C158.628 29.8578 156.743 31.8879 153.87 31.8879C151.179 31.8879 149.289 29.9879 149.289 26.3494V23.8612C149.289 19.978 151.538 18.4216 153.88 18.4216ZM168.388 36.9318V1.44704L175.545 0.822399V24.6056L182.65 13.2736H190.214L182.807 25.0116L190.5 36.9318H182.916L175.545 25.3604V36.9318H168.388Z" fill="#1877F2"/>
</g>
</svg>
