<svg width="151" height="50" viewBox="0 0 151 50" fill="none" xmlns="http://www.w3.org/2000/svg">
<g id="XMLID_24_">
<path id="XMLID_26_" d="M37.3919 17.3514H19.8784V22.5405H32.2838C31.6757 29.8378 25.5946 32.9189 19.8784 32.9189C12.5405 32.9189 6.17568 27.1622 6.17568 19.0946C6.17568 11.2297 12.2568 5.18919 19.8784 5.18919C25.7568 5.18919 29.2432 8.95946 29.2432 8.95946L32.8919 5.18919C32.8919 5.18919 28.2297 0 19.7162 0C8.89189 0 0.5 9.16217 0.5 19.0135C0.5 28.7027 8.4054 38.1487 20 38.1487C30.2162 38.1487 37.6757 31.1351 37.6757 20.7973C37.6757 18.6081 37.3919 17.3514 37.3919 17.3514Z" fill="#4285F4"/>
<path id="XMLID_32_" d="M51.7032 13.5811C44.5276 13.5811 39.3789 19.2162 39.3789 25.7432C39.3789 32.3919 44.3654 38.1081 51.7843 38.1081C58.514 38.1081 63.987 32.9594 63.987 25.9054C64.0276 17.7567 57.6222 13.5811 51.7032 13.5811ZM51.7843 18.4054C55.3113 18.4054 58.6762 21.2432 58.6762 25.8648C58.6762 30.3648 55.3519 33.3243 51.7843 33.3243C47.8519 33.3243 44.7708 30.2027 44.7708 25.8648C44.7708 21.5675 47.8113 18.4054 51.7843 18.4054Z" fill="#EA4335"/>
<path id="XMLID_35_" d="M78.5401 13.5811C71.3645 13.5811 66.2158 19.2162 66.2158 25.7432C66.2158 32.3919 71.2023 38.1081 78.6212 38.1081C85.351 38.1081 90.8239 32.9594 90.8239 25.9054C90.8239 17.7567 84.4185 13.5811 78.5401 13.5811ZM78.6212 18.4054C82.1483 18.4054 85.5131 21.2432 85.5131 25.8648C85.5131 30.3648 82.1888 33.3243 78.6212 33.3243C74.6888 33.3243 71.6077 30.2027 71.6077 25.8648C71.5672 21.5675 74.6483 18.4054 78.6212 18.4054Z" fill="#FBBC05"/>
<path id="XMLID_38_" d="M104.811 13.5811C98.2033 13.5811 93.0547 19.3378 93.0547 25.8243C93.0547 33.2027 99.0547 38.1081 104.73 38.1081C108.217 38.1081 110.082 36.7297 111.46 35.1081V37.5405C111.46 41.7567 108.906 44.3108 105.014 44.3108C101.284 44.3108 99.379 41.5135 98.7304 39.9324L94.0277 41.9189C95.6898 45.4459 99.0547 49.1351 105.055 49.1351C111.622 49.1351 116.609 45 116.609 36.3648V14.3108H111.46V16.3784C109.879 14.7162 107.69 13.5811 104.811 13.5811ZM105.298 18.4054C108.541 18.4054 111.866 21.1621 111.866 25.8648C111.866 30.6486 108.541 33.2838 105.257 33.2838C101.73 33.2838 98.4871 30.4459 98.4871 25.9054C98.4466 21.2027 101.852 18.4054 105.298 18.4054Z" fill="#4285F4"/>
<path id="XMLID_42_" d="M139.432 13.5811C133.23 13.5811 128 18.527 128 25.8243C128 33.5675 133.838 38.1486 140.041 38.1486C145.23 38.1486 148.432 35.3108 150.297 32.7567L146.041 29.9189C144.946 31.6216 143.081 33.2838 140.041 33.2838C136.595 33.2838 135.014 31.3784 134.041 29.554L150.5 22.7432L149.649 20.7567C148.068 16.8243 144.338 13.5811 139.432 13.5811ZM139.676 18.2838C141.905 18.2838 143.527 19.4594 144.216 20.9189L133.23 25.5C132.743 21.9324 136.108 18.2838 139.676 18.2838Z" fill="#EA4335"/>
<path id="XMLID_43_" d="M125.568 1.25684H120.176V37.419H125.568V1.25684Z" fill="#34A853"/>
</g>
</svg>
