<svg width="129" height="38" viewBox="0 0 129 38" fill="none" xmlns="http://www.w3.org/2000/svg">
<path d="M25.5676 10.8649C26.3494 10.0811 26.8332 8.99963 26.8332 7.80473C26.8332 5.41172 24.8931 3.47162 22.5 3.47162C20.9872 3.47162 19.657 4.2483 18.882 5.42328C18.6761 5.6295 1.42681 26.8897 1.26556 27.1341C0.483742 27.9179 0 28.9997 0 30.194C0 32.5873 1.9401 34.5274 4.33311 34.5274C5.846 34.5274 7.17613 33.751 7.95121 32.5757C8.15711 32.3695 25.4064 11.109 25.5676 10.8649Z" fill="white"/>
<path d="M35.5483 20.9538C36.3324 20.1694 36.8171 19.0866 36.8171 17.8901C36.8171 15.4971 34.877 13.557 32.484 13.557C30.9704 13.557 29.6397 14.3344 28.8646 15.5103C28.6571 15.7181 19.5974 26.8856 19.4352 27.1317C18.6511 27.916 18.1664 28.9988 18.1664 30.195C18.1664 32.5884 20.1065 34.5285 22.4995 34.5285C24.013 34.5285 25.3438 33.7511 26.1186 32.5752C26.3261 32.3677 35.3861 21.1999 35.5483 20.9538Z" fill="white"/>
<path d="M45 7.80473C45 10.1981 43.0599 12.1378 40.6668 12.1378C38.2735 12.1378 36.3337 10.1981 36.3337 7.80473C36.3337 5.41172 38.2735 3.47162 40.6668 3.47162C43.0599 3.47162 45 5.41172 45 7.80473Z" fill="white"/>
<path d="M8.66622 7.80473C8.66622 10.1981 6.72612 12.1378 4.33311 12.1378C1.9401 12.1378 0 10.1981 0 7.80473C0 5.41172 1.9401 3.47162 4.33311 3.47162C6.72612 3.47162 8.66622 5.41172 8.66622 7.80473Z" fill="white"/>
<path d="M64.69 8.9C66.47 8.9 68.01 9.24 69.31 9.92C70.61 10.58 71.71 11.56 72.61 12.86L70.45 14.93C69.69 13.77 68.83 12.94 67.87 12.44C66.93 11.92 65.81 11.66 64.51 11.66C63.55 11.66 62.76 11.79 62.14 12.05C61.52 12.31 61.06 12.66 60.76 13.1C60.48 13.52 60.34 14 60.34 14.54C60.34 15.16 60.55 15.7 60.97 16.16C61.41 16.62 62.22 16.98 63.4 17.24L67.42 18.14C69.34 18.56 70.7 19.2 71.5 20.06C72.3 20.92 72.7 22.01 72.7 23.33C72.7 24.55 72.37 25.61 71.71 26.51C71.05 27.41 70.13 28.1 68.95 28.58C67.79 29.06 66.42 29.3 64.84 29.3C63.44 29.3 62.18 29.12 61.06 28.76C59.94 28.4 58.96 27.91 58.12 27.29C57.28 26.67 56.59 25.96 56.05 25.16L58.27 22.94C58.69 23.64 59.22 24.27 59.86 24.83C60.5 25.37 61.24 25.79 62.08 26.09C62.94 26.39 63.89 26.54 64.93 26.54C65.85 26.54 66.64 26.43 67.3 26.21C67.98 25.99 68.49 25.67 68.83 25.25C69.19 24.81 69.37 24.29 69.37 23.69C69.37 23.11 69.17 22.6 68.77 22.16C68.39 21.72 67.67 21.38 66.61 21.14L62.26 20.15C61.06 19.89 60.07 19.52 59.29 19.04C58.51 18.56 57.93 17.98 57.55 17.3C57.17 16.6 56.98 15.82 56.98 14.96C56.98 13.84 57.28 12.83 57.88 11.93C58.5 11.01 59.39 10.28 60.55 9.74C61.71 9.18 63.09 8.9 64.69 8.9ZM81.118 9.59V24.5C81.118 25.24 81.308 25.78 81.688 26.12C82.088 26.46 82.618 26.63 83.278 26.63C83.818 26.63 84.288 26.55 84.688 26.39C85.088 26.21 85.458 25.97 85.798 25.67L86.518 28.01C86.058 28.41 85.488 28.73 84.808 28.97C84.148 29.19 83.408 29.3 82.588 29.3C81.728 29.3 80.938 29.16 80.218 28.88C79.498 28.6 78.938 28.15 78.538 27.53C78.138 26.89 77.928 26.06 77.908 25.04V10.49L81.118 9.59ZM86.278 14V16.52H75.028V14H86.278ZM98.2108 19.37C98.2108 18.37 97.9308 17.6 97.3708 17.06C96.8308 16.5 96.0808 16.22 95.1208 16.22C94.2208 16.22 93.4508 16.43 92.8108 16.85C92.1708 17.27 91.7008 17.95 91.4008 18.89L88.7008 17.75C89.0808 16.53 89.8208 15.55 90.9208 14.81C92.0408 14.07 93.4808 13.7 95.2408 13.7C96.4408 13.7 97.5008 13.9 98.4208 14.3C99.3408 14.68 100.061 15.26 100.581 16.04C101.121 16.82 101.391 17.82 101.391 19.04V25.73C101.391 26.47 101.761 26.84 102.501 26.84C102.861 26.84 103.211 26.79 103.551 26.69L103.371 28.91C102.911 29.13 102.331 29.24 101.631 29.24C100.991 29.24 100.411 29.13 99.8908 28.91C99.3908 28.67 98.9908 28.32 98.6908 27.86C98.4108 27.38 98.2708 26.79 98.2708 26.09V25.88L98.9308 25.85C98.7508 26.63 98.3808 27.28 97.8208 27.8C97.2608 28.3 96.6108 28.68 95.8708 28.94C95.1308 29.18 94.3808 29.3 93.6208 29.3C92.6808 29.3 91.8308 29.15 91.0708 28.85C90.3308 28.55 89.7408 28.1 89.3008 27.5C88.8808 26.88 88.6708 26.12 88.6708 25.22C88.6708 24.1 89.0308 23.18 89.7508 22.46C90.4908 21.74 91.5308 21.25 92.8708 20.99L98.6908 19.85L98.6608 22.1L94.4308 22.97C93.5908 23.13 92.9608 23.36 92.5408 23.66C92.1208 23.96 91.9108 24.4 91.9108 24.98C91.9108 25.54 92.1208 25.99 92.5408 26.33C92.9808 26.65 93.5608 26.81 94.2808 26.81C94.7808 26.81 95.2608 26.75 95.7208 26.63C96.2008 26.51 96.6308 26.32 97.0108 26.06C97.3908 25.78 97.6808 25.43 97.8808 25.01C98.1008 24.57 98.2108 24.05 98.2108 23.45V19.37ZM106.65 29V14H109.38L109.68 16.7C110.08 15.72 110.67 14.98 111.45 14.48C112.25 13.96 113.23 13.7 114.39 13.7C114.69 13.7 114.99 13.73 115.29 13.79C115.59 13.83 115.84 13.9 116.04 14L115.59 16.82C115.37 16.74 115.12 16.68 114.84 16.64C114.58 16.58 114.22 16.55 113.76 16.55C113.14 16.55 112.53 16.72 111.93 17.06C111.33 17.38 110.83 17.87 110.43 18.53C110.05 19.19 109.86 20.03 109.86 21.05V29H106.65ZM122.72 9.59V24.5C122.72 25.24 122.91 25.78 123.29 26.12C123.69 26.46 124.22 26.63 124.88 26.63C125.42 26.63 125.89 26.55 126.29 26.39C126.69 26.21 127.06 25.97 127.4 25.67L128.12 28.01C127.66 28.41 127.09 28.73 126.41 28.97C125.75 29.19 125.01 29.3 124.19 29.3C123.33 29.3 122.54 29.16 121.82 28.88C121.1 28.6 120.54 28.15 120.14 27.53C119.74 26.89 119.53 26.06 119.51 25.04V10.49L122.72 9.59ZM127.88 14V16.52H116.63V14H127.88Z" fill="white"/>
</svg>
