<svg width="25" height="25" viewBox="0 0 25 25" fill="none" xmlns="http://www.w3.org/2000/svg">
<g id="check-lg 1">
<path id="Vector" d="M19.9002 6.20312C20.0068 6.09432 20.1341 6.00789 20.2745 5.94888C20.415 5.88987 20.5658 5.85948 20.7182 5.85948C20.8705 5.85948 21.0213 5.88987 21.1618 5.94888C21.3022 6.00789 21.4295 6.09432 21.5361 6.20312C21.983 6.65469 21.9892 7.38437 21.5517 7.84375L12.3127 18.7656C12.2078 18.8808 12.0805 18.9734 11.9386 19.0377C11.7967 19.102 11.6431 19.1367 11.4874 19.1396C11.3316 19.1425 11.1769 19.1136 11.0327 19.0547C10.8884 18.9958 10.7578 18.908 10.6486 18.7969L5.02675 13.1C4.80993 12.8789 4.68848 12.5816 4.68848 12.2719C4.68848 11.9622 4.80993 11.6649 5.02675 11.4437C5.13338 11.3349 5.26065 11.2485 5.4011 11.1895C5.54156 11.1305 5.69237 11.1001 5.84471 11.1001C5.99706 11.1001 6.14787 11.1305 6.28833 11.1895C6.42878 11.2485 6.55605 11.3349 6.66268 11.4437L11.4314 16.2766L19.8689 6.2375C19.8786 6.22542 19.8891 6.21395 19.9002 6.20312Z" fill="#74C69D"/>
</g>
</svg>
