<svg width="201" height="43" viewBox="0 0 201 43" fill="none" xmlns="http://www.w3.org/2000/svg">
<g id="XMLID_1_">
<path id="path5056" d="M200.5 19.3972V15.8708H196.132V10.3971L195.974 10.4498L191.868 11.7129H191.763V15.8708H185.289V13.5551C185.289 12.5024 185.553 11.6603 186.026 11.134C186.5 10.6077 187.184 10.2919 188.026 10.2919C188.658 10.2919 189.289 10.4498 189.921 10.7129L190.079 10.7656V7.08134L190.026 7.02872C189.447 6.81819 188.605 6.71292 187.605 6.71292C186.342 6.71292 185.184 6.97608 184.184 7.55503C183.184 8.08135 182.395 8.87082 181.816 9.87083C181.237 10.8708 180.974 12.0287 180.974 13.2919V15.8182H177.921V19.3445H180.974V34.1867H185.342V19.3445H191.816V28.8183C191.816 32.713 193.658 34.6604 197.237 34.6604C197.816 34.6604 198.447 34.6078 199.079 34.4499C199.711 34.292 200.184 34.1867 200.447 34.0288L200.5 33.9762V30.4499L200.342 30.5551C200.079 30.713 199.816 30.8183 199.447 30.9235C199.079 31.0288 198.816 31.0814 198.605 31.0814C197.763 31.0814 197.132 30.8709 196.763 30.3972C196.395 29.9235 196.184 29.1341 196.184 28.0288V19.3972H200.5ZM168.184 31.0814C166.605 31.0814 165.342 30.5551 164.447 29.5025C163.553 28.4498 163.131 26.9762 163.131 25.0814C163.131 23.134 163.605 21.6077 164.447 20.5551C165.342 19.5024 166.553 18.9761 168.131 18.9761C169.658 18.9761 170.868 19.5024 171.71 20.5024C172.553 21.5025 173.026 23.0288 173.026 24.9762C173.026 26.9762 172.605 28.5025 171.816 29.5025C170.974 30.6077 169.763 31.0814 168.184 31.0814ZM168.342 15.4498C165.342 15.4498 162.921 16.3445 161.184 18.0814C159.447 19.8182 158.605 22.2393 158.605 25.2919C158.605 28.1867 159.447 30.4498 161.131 32.1341C162.816 33.8183 165.079 34.6604 167.868 34.6604C170.816 34.6604 173.131 33.7657 174.868 31.9762C176.605 30.1867 177.447 27.8183 177.447 24.8709C177.447 21.9761 176.658 19.6077 175.026 17.9761C173.447 16.2919 171.237 15.4498 168.342 15.4498ZM151.605 15.4498C149.552 15.4498 147.868 15.9761 146.552 17.0288C145.237 18.0814 144.605 19.4498 144.605 21.0814C144.605 21.9235 144.763 22.713 145.026 23.3446C145.289 23.9761 145.763 24.5551 146.342 25.0288C146.921 25.5025 147.816 26.0288 148.974 26.5025C149.974 26.9235 150.71 27.2393 151.184 27.5551C151.658 27.8183 151.974 28.0814 152.131 28.3446C152.289 28.6077 152.395 28.9762 152.395 29.3972C152.395 30.6078 151.447 31.2393 149.552 31.2393C148.868 31.2393 148.026 31.0814 147.184 30.8183C146.289 30.5025 145.5 30.1341 144.763 29.5551L144.605 29.4499V33.6604L144.658 33.713C145.289 33.9762 146.079 34.2394 146.973 34.4499C147.868 34.6604 148.71 34.713 149.447 34.713C151.658 34.713 153.5 34.1867 154.763 33.1341C156.079 32.0814 156.763 30.6604 156.763 28.9762C156.763 27.7656 156.395 26.6604 155.71 25.8183C155.026 24.9761 153.763 24.1867 152.079 23.5025C150.71 22.9761 149.868 22.5025 149.5 22.134C149.131 21.8182 148.974 21.3446 148.974 20.713C148.974 20.1867 149.184 19.7656 149.658 19.3972C150.131 19.0288 150.71 18.8709 151.5 18.8709C152.237 18.8709 152.974 18.9761 153.71 19.1867C154.447 19.3972 155.079 19.713 155.658 20.0814L155.816 20.1867V16.1866L155.763 16.134C155.237 15.9235 154.605 15.713 153.816 15.6077C152.974 15.5551 152.237 15.4498 151.605 15.4498ZM133.184 31.0814C131.605 31.0814 130.342 30.5551 129.447 29.5025C128.552 28.4498 128.131 26.9762 128.131 25.0814C128.131 23.134 128.605 21.6077 129.447 20.5551C130.342 19.5024 131.552 18.9761 133.131 18.9761C134.658 18.9761 135.868 19.5024 136.71 20.5024C137.552 21.5025 138.026 23.0288 138.026 24.9762C138.026 26.9762 137.605 28.5025 136.816 29.5025C136.026 30.6077 134.816 31.0814 133.184 31.0814ZM133.394 15.4498C130.394 15.4498 127.973 16.3445 126.237 18.0814C124.5 19.8182 123.658 22.2393 123.658 25.2919C123.658 28.1867 124.5 30.4498 126.184 32.1341C127.868 33.8183 130.131 34.6604 132.921 34.6604C135.868 34.6604 138.184 33.7657 139.921 31.9762C141.658 30.1867 142.5 27.8183 142.5 24.8709C142.5 21.9761 141.71 19.6077 140.079 17.9761C138.5 16.2919 136.237 15.4498 133.394 15.4498ZM117.026 19.0814V15.9235H112.71V34.2393H117.026V24.8709C117.026 23.2919 117.394 21.9761 118.079 20.9761C118.763 19.9761 119.71 19.5024 120.868 19.5024C121.237 19.5024 121.71 19.5551 122.184 19.713C122.658 19.8182 122.973 19.9761 123.184 20.134L123.342 20.2393V15.8708L123.289 15.8182C122.868 15.6603 122.342 15.5551 121.605 15.5551C120.5 15.5551 119.552 15.9235 118.71 16.6077C118.026 17.2393 117.5 18.0288 117.026 19.0814ZM105.026 15.4498C103.026 15.4498 101.289 15.8709 99.7628 16.713C98.2365 17.5551 97.0786 18.7656 96.2891 20.2919C95.4996 21.8182 95.0785 23.6077 95.0785 25.5551C95.0785 27.2919 95.447 28.8709 96.2364 30.292C97.0259 31.713 98.0786 32.8183 99.447 33.5551C100.815 34.292 102.394 34.713 104.184 34.713C106.236 34.713 107.973 34.292 109.394 33.5025L109.447 33.4499V29.5025L109.289 29.6604C108.658 30.1341 107.921 30.5025 107.184 30.7657C106.447 31.0288 105.71 31.1867 105.131 31.1867C103.447 31.1867 102.079 30.6604 101.079 29.6077C100.079 28.5551 99.6049 27.0814 99.6049 25.2393C99.6049 23.3972 100.131 21.8709 101.184 20.7656C102.236 19.6603 103.552 19.0814 105.236 19.0814C106.658 19.0814 108.026 19.5551 109.342 20.5024L109.5 20.6077V16.4498L109.447 16.3972C108.973 16.134 108.289 15.8709 107.447 15.713C106.605 15.5551 105.763 15.4498 105.026 15.4498ZM92.1312 15.9235H87.8154V34.2393H92.1312V15.9235ZM90.0259 8.08135C89.3417 8.08135 88.7101 8.34451 88.1838 8.81819C87.6575 9.29188 87.3943 9.92346 87.3943 10.6077C87.3943 11.2919 87.6575 11.9235 88.1311 12.3972C88.6575 12.8708 89.2364 13.0814 89.9733 13.0814C90.7101 13.0814 91.3417 12.8708 91.8154 12.3972C92.3417 11.9235 92.6049 11.3445 92.6049 10.6077C92.6049 9.92346 92.3417 9.34451 91.868 8.81819C91.3943 8.34451 90.7627 8.08135 90.0259 8.08135ZM79.289 14.5551V34.2393H83.7101V8.6603H77.6048L69.8679 27.6604L62.3416 8.6603H56.0258V34.2393H60.1837V14.5551H60.3416L68.289 34.2393H71.3942L79.1837 14.5551H79.289Z" fill="#706D6E"/>
<path id="path5058" d="M20.7632 20.3984H0.5V0.135132H20.7632V20.3984Z" fill="#F1511B"/>
<path id="path5060" d="M43.1834 20.3984H22.9202V0.135132H43.1834V20.3984Z" fill="#80CC28"/>
<path id="path5062" d="M20.7632 42.8195H0.5V22.5037H20.7632V42.8195Z" fill="#00ADEF"/>
<path id="path5064" d="M43.1834 42.8195H22.9202V22.5037H43.1834V42.8195Z" fill="#FBBC09"/>
</g>
</svg>
