<svg width="19" height="18" viewBox="0 0 19 18" fill="none" xmlns="http://www.w3.org/2000/svg">
<path d="M14.6449 3.21362C14.0619 3.21362 13.5892 3.68624 13.5892 4.26874C13.5892 4.85175 14.0619 5.32436 14.6449 5.32436C15.2274 5.32436 15.7 4.85175 15.7 4.26874C15.7 3.68624 15.2274 3.21362 14.6449 3.21362Z" fill="white"/>
<path d="M9.95312 11.8392C8.38723 11.8392 7.11335 10.5654 7.11335 8.99999C7.11335 7.43411 8.38723 6.16025 9.95312 6.16025C11.5185 6.16025 12.7924 7.43411 12.7924 8.99999C12.7924 10.5654 11.5185 11.8392 9.95312 11.8392ZM9.95312 4.56689C7.50865 4.56689 5.52002 6.55553 5.52002 8.99999C5.52002 11.4439 7.50865 13.4326 9.95312 13.4326C12.3971 13.4326 14.3857 11.4439 14.3857 8.99999C14.3857 6.55553 12.3971 4.56689 9.95312 4.56689Z" fill="white"/>
<path d="M6.28614 1.69357C4.23849 1.69357 2.57289 3.35917 2.57289 5.40682V12.5932C2.57289 14.6408 4.23849 16.3064 6.28614 16.3064H13.4725C15.5201 16.3064 17.1862 14.6408 17.1862 12.5932V5.40682C17.1862 3.35917 15.5201 1.69357 13.4725 1.69357H6.28614ZM13.4725 18H6.28614C3.30445 18 0.879822 15.5744 0.879822 12.5932V5.40682C0.879822 2.42513 3.30445 0 6.28614 0H13.4725C16.4537 0 18.8793 2.42513 18.8793 5.40682V12.5932C18.8793 15.5744 16.4537 18 13.4725 18Z" fill="white"/>
</svg>
