<svg width="23" height="18" viewBox="0 0 23 18" fill="none" xmlns="http://www.w3.org/2000/svg">
<path d="M22.6593 2.15762C21.9644 2.47202 21.1967 2.66229 20.4473 2.78795C20.8029 2.72842 21.3254 2.08436 21.535 1.82389C21.8545 1.42707 22.1195 0.974281 22.2686 0.485381C22.2879 0.447225 22.3027 0.399404 22.264 0.370406C22.2162 0.351583 22.1851 0.361255 22.147 0.380079C21.3101 0.82828 20.4453 1.15336 19.5244 1.38382C19.4481 1.40265 19.3911 1.38382 19.3433 1.33549C19.2675 1.24951 19.1953 1.16812 19.1144 1.10147C18.7272 0.772318 18.3121 0.51387 17.844 0.323092C17.2295 0.0727911 16.558 -0.0335303 15.8961 0.00920395C15.2515 0.0514295 14.6191 0.232542 14.0478 0.531173C13.475 0.830313 12.9637 1.24697 12.5562 1.7491C12.1355 2.26903 11.8251 2.88207 11.6659 3.53275C11.5133 4.16053 11.5255 4.7812 11.6191 5.4156C11.6333 5.52091 11.6237 5.53515 11.5285 5.52091C7.92714 4.9847 4.94185 3.69656 2.5182 0.934605C2.41289 0.814542 2.35593 0.814537 2.26995 0.943757C1.20922 2.53357 1.72354 5.08695 3.04831 6.34202C3.22535 6.5099 3.40649 6.67677 3.60235 6.82939C3.53062 6.84414 2.64947 6.74901 1.86346 6.34202C1.75866 6.27537 1.70525 6.31404 1.69609 6.43308C1.68643 6.60504 1.70117 6.76326 1.72457 6.94946C1.92806 8.56064 3.04425 10.0507 4.57251 10.6327C4.75363 10.7091 4.95458 10.7757 5.14994 10.8093C4.80196 10.8856 4.4433 10.94 3.44464 10.8617C3.32051 10.8383 3.27319 10.9003 3.3205 11.0199C4.0714 13.0645 5.6902 13.6735 6.90355 14.0199C7.06584 14.0484 7.22866 14.0484 7.39146 14.0866C7.38128 14.1013 7.3716 14.1013 7.36193 14.1156C6.96002 14.7286 5.56508 15.185 4.91541 15.4119C3.73411 15.825 2.44751 16.0107 1.19906 15.8875C0.999632 15.858 0.957409 15.8606 0.903483 15.8875C0.848539 15.9216 0.895851 15.9694 0.960462 16.0213C1.21381 16.1887 1.47173 16.3368 1.73475 16.4802C2.52737 16.9004 3.35407 17.2352 4.21894 17.4738C8.68314 18.7065 13.7115 17.8004 17.0636 14.4702C19.6959 11.8547 20.6187 8.24776 20.6187 4.63671C20.6187 4.49528 20.7856 4.41744 20.8843 4.34266C21.5696 3.82832 22.1221 3.21224 22.6328 2.52493C22.7478 2.37027 22.7488 2.23291 22.7488 2.17644C22.7488 2.16677 22.7488 2.15762 22.7488 2.15762C22.7488 2.09962 22.7478 2.11743 22.6593 2.15762Z" fill="white"/>
</svg>
