<svg width="15" height="18" viewBox="0 0 15 18" fill="none" xmlns="http://www.w3.org/2000/svg">
<path fill-rule="evenodd" clip-rule="evenodd" d="M6.57738 11.7417C6.56212 11.7936 6.54837 11.8368 6.53667 11.8806C5.87531 14.4706 5.80205 15.046 5.12288 16.2497C4.7983 16.821 4.43354 17.3628 4.0296 17.8817C3.98381 17.9402 3.94159 18.0155 3.85053 17.9972C3.75081 17.9758 3.74317 17.8863 3.73197 17.8064C3.6231 17.0194 3.5636 16.2298 3.58954 15.4357C3.62363 14.4004 3.75181 14.0453 5.08624 8.43284C5.10608 8.34737 5.08421 8.27666 5.05572 8.19882C4.73623 7.33752 4.67315 6.46299 4.95194 5.57676C5.55582 3.66236 7.7261 3.51584 8.10563 5.09549C8.33914 6.07227 7.72104 7.35023 7.24638 9.2397C6.85312 10.799 8.68814 11.907 10.2571 10.769C11.7029 9.71996 12.2646 7.20423 12.1578 5.42159C11.9477 1.86752 8.0507 1.09932 5.57719 2.24399C2.74299 3.55451 2.0984 7.06839 3.37839 8.67398C3.54017 8.87849 3.66535 9.00314 3.61193 9.21071C3.52951 9.53172 3.45676 9.85579 3.36824 10.1758C3.3021 10.4134 3.10265 10.5004 2.86201 10.4022C2.39041 10.2114 1.99717 9.91125 1.67819 9.51544C0.591513 8.16982 0.280653 5.50706 1.71734 3.25384C3.30971 0.756423 6.27163 -0.253431 8.97509 0.0533407C12.2046 0.420144 14.2457 2.62707 14.6282 5.13008C14.8022 6.27069 14.6771 9.0825 13.0765 11.0702C11.2344 13.3539 8.2491 13.505 6.87193 12.1034C6.76611 11.9961 6.68116 11.8699 6.57738 11.7417Z" fill="white"/>
</svg>
