<svg width="17" height="18" viewBox="0 0 17 18" fill="none" xmlns="http://www.w3.org/2000/svg">
<path d="M16.0883 7.28289C15.9411 7.29686 15.7935 7.30434 15.6453 7.30534C14.0243 7.30534 12.5129 6.48832 11.6251 5.1321V12.5312C11.6251 15.5519 9.17598 18 6.15628 18C3.13558 18 0.6875 15.5519 0.6875 12.5312C0.6875 9.51101 3.13558 7.06293 6.15628 7.06293C6.27 7.06293 6.38173 7.07291 6.49396 7.07989V9.77487C6.38173 9.7614 6.2715 9.74095 6.15628 9.74095C4.6145 9.74095 3.36502 10.9909 3.36502 12.5317C3.36502 14.0735 4.6145 15.323 6.15628 15.323C7.69805 15.323 9.05927 14.1084 9.05927 12.5666L9.0867 0H11.665C11.9079 2.31191 13.7719 4.11805 16.0908 4.28764V7.28289" fill="white"/>
</svg>
