<svg width="161" height="49" viewBox="0 0 161 49" fill="none" xmlns="http://www.w3.org/2000/svg">
<g id="XMLID_1_">
<path id="XMLID_2_" d="M24.4781 0.494019C11.2397 0.494019 0.5 11.2337 0.5 24.4721C0.5 37.7105 11.2397 48.4502 24.4781 48.4502C37.7164 48.4502 48.4562 37.7105 48.4562 24.4721C48.5 11.2337 37.7603 0.494019 24.4781 0.494019ZM35.4808 35.0803C35.0425 35.7817 34.1219 36.0009 33.4206 35.5625C27.7658 32.0995 20.7082 31.3543 12.3356 33.2392C11.5466 33.4146 10.7137 32.9324 10.5384 32.0995C10.363 31.3105 10.8452 30.4776 11.6781 30.3022C20.8397 28.1981 28.6425 29.1187 34.9986 32.9762C35.7 33.4584 35.9192 34.379 35.4808 35.0803ZM38.4178 28.5488C37.8918 29.4255 36.7082 29.6885 35.8315 29.1625C29.3877 25.2173 19.5685 24.0337 11.9411 26.357C10.9329 26.6639 9.92466 26.094 9.61781 25.1296C9.31096 24.1214 9.88082 23.1132 10.8452 22.8063C19.5685 20.1762 30.3959 21.4474 37.8041 26.0063C38.6808 26.5324 38.9877 27.6721 38.4178 28.5488ZM38.6808 21.7543C30.9658 17.1516 18.2096 16.757 10.8014 18.9926C9.61781 19.3433 8.34657 18.6858 7.99589 17.5022C7.6452 16.3187 8.30274 15.0474 9.4863 14.6968C17.9466 12.1105 32.0616 12.6365 40.9603 17.8968C42.0123 18.5105 42.363 19.9132 41.7493 20.9653C41.1356 22.0173 39.7329 22.368 38.6808 21.7543ZM65.7712 22.631C61.6068 21.6228 60.9055 20.9653 60.9055 19.4748C60.9055 18.1159 62.2205 17.1516 64.1493 17.1516C66.0342 17.1516 67.8753 17.8529 69.8041 19.2995C69.8479 19.3433 69.9356 19.3433 70.0233 19.3433C70.111 19.3433 70.1548 19.2995 70.1986 19.2118L72.2151 16.3625C72.3027 16.231 72.2589 16.0995 72.1712 16.0118C69.8479 14.1707 67.2616 13.2502 64.1932 13.2502C59.7219 13.2502 56.6096 15.9242 56.6096 19.7817C56.6096 23.9022 59.3274 25.3488 63.974 26.4885C67.9192 27.4091 68.6205 28.1543 68.6205 29.5132C68.6205 31.0474 67.2616 31.968 65.0699 31.968C62.6589 31.968 60.6863 31.1351 58.4507 29.2502C58.4068 29.2063 58.3192 29.1625 58.2315 29.1625C58.1438 29.1625 58.1 29.2063 58.0562 29.2502L55.7767 31.968C55.689 32.0995 55.689 32.231 55.8205 32.3625C58.4068 34.642 61.563 35.8694 64.9384 35.8694C69.7603 35.8694 72.8726 33.2392 72.8726 29.1625C72.8726 25.7433 70.8123 23.8584 65.7712 22.631ZM83.7877 18.5543C81.6836 18.5543 79.974 19.3872 78.5712 21.0529V19.168C78.5712 19.0365 78.4397 18.905 78.3082 18.905H74.5822C74.4507 18.905 74.3192 19.0365 74.3192 19.168V40.2529C74.3192 40.3844 74.4507 40.5159 74.5822 40.5159H78.3082C78.4397 40.5159 78.5712 40.3844 78.5712 40.2529V33.5899C79.974 35.168 81.6836 35.957 83.7877 35.957C87.689 35.957 91.5904 32.9762 91.5904 27.2776C91.5904 21.5351 87.689 18.5543 83.7877 18.5543ZM87.2945 27.2337C87.2945 30.1269 85.4973 32.1872 82.9548 32.1872C80.4123 32.1872 78.4836 30.0831 78.4836 27.2337C78.4836 24.4283 80.4123 22.2803 82.9548 22.2803C85.4534 22.3242 87.2945 24.3844 87.2945 27.2337ZM101.673 18.5543C96.6753 18.5543 92.774 22.4118 92.774 27.3214C92.774 32.1872 96.6753 36.0009 101.629 36.0009C106.626 36.0009 110.571 32.1433 110.571 27.2776C110.571 22.368 106.67 18.5543 101.673 18.5543ZM101.673 32.231C98.9986 32.231 97.026 30.0831 97.026 27.2776C97.026 24.4283 98.9548 22.368 101.629 22.368C104.303 22.368 106.319 24.5159 106.319 27.3214C106.319 30.1707 104.347 32.231 101.673 32.231ZM121.223 18.8611H117.147V14.6968C117.147 14.5652 117.015 14.4337 116.884 14.4337H113.158C113.026 14.4337 112.895 14.5652 112.895 14.6968V18.8611H111.097C110.966 18.8611 110.834 18.9926 110.834 19.1242V22.3242C110.834 22.4557 110.966 22.5872 111.097 22.5872H112.895V30.8283C112.895 34.1598 114.56 35.8694 117.848 35.8694C119.163 35.8694 120.259 35.6063 121.311 34.9926C121.399 34.9488 121.442 34.8611 121.442 34.7735V31.7488C121.442 31.6611 121.399 31.5735 121.311 31.5296C121.223 31.4858 121.136 31.4858 121.048 31.5296C120.347 31.8803 119.645 32.0557 118.856 32.0557C117.673 32.0557 117.147 31.5296 117.147 30.3022V22.631H121.223C121.355 22.631 121.486 22.4995 121.486 22.368V19.168C121.53 18.9926 121.399 18.905 121.223 18.8611ZM135.47 18.905V18.379C135.47 16.8885 136.04 16.1872 137.355 16.1872C138.144 16.1872 138.758 16.3625 139.459 16.5817C139.547 16.6255 139.634 16.5817 139.722 16.5378C139.81 16.494 139.853 16.4063 139.853 16.3187V13.2063C139.853 13.0748 139.766 12.9872 139.678 12.9433C138.933 12.7242 138.012 12.505 136.61 12.505C133.19 12.505 131.393 14.4337 131.393 18.0721V18.8611H129.596C129.464 18.8611 129.333 18.9926 129.333 19.1242V22.3242C129.333 22.4557 129.464 22.5872 129.596 22.5872H131.393V35.2995C131.393 35.431 131.525 35.5625 131.656 35.5625H135.382C135.514 35.5625 135.645 35.431 135.645 35.2995V22.5872H139.108L144.412 35.2995C143.799 36.6146 143.229 36.9214 142.396 36.9214C141.738 36.9214 141.037 36.7461 140.336 36.3516C140.248 36.3077 140.204 36.3077 140.116 36.3516C140.029 36.3954 139.985 36.4392 139.941 36.4831L138.67 39.2447C138.626 39.3762 138.67 39.5077 138.801 39.5954C140.116 40.2968 141.3 40.6036 142.747 40.6036C145.464 40.6036 146.999 39.3324 148.314 35.9132L154.758 19.2995C154.801 19.2118 154.801 19.1242 154.714 19.0365C154.67 18.9488 154.582 18.905 154.495 18.905H150.637C150.505 18.905 150.418 18.9926 150.374 19.0803L146.429 30.3899L142.089 19.0803C142.045 18.9926 141.958 18.905 141.826 18.905H135.47ZM127.229 18.8611H123.503C123.371 18.8611 123.24 18.9926 123.24 19.1242V35.2995C123.24 35.431 123.371 35.5625 123.503 35.5625H127.229C127.36 35.5625 127.492 35.431 127.492 35.2995V19.1242C127.492 18.9926 127.36 18.8611 127.229 18.8611ZM125.388 11.4968C123.897 11.4968 122.714 12.6803 122.714 14.1707C122.714 15.6611 123.897 16.8447 125.388 16.8447C126.878 16.8447 128.062 15.6611 128.062 14.1707C128.018 12.7242 126.834 11.4968 125.388 11.4968ZM157.87 24.0776C156.423 24.0776 155.24 22.894 155.24 21.4474C155.24 20.0009 156.379 18.8173 157.87 18.8173C159.316 18.8173 160.5 20.0009 160.5 21.4474C160.5 22.894 159.36 24.0776 157.87 24.0776ZM157.87 19.1242C156.511 19.1242 155.503 20.1762 155.503 21.4913C155.503 22.8063 156.511 23.8584 157.826 23.8584C159.185 23.8584 160.193 22.8063 160.193 21.4913C160.237 20.1762 159.229 19.1242 157.87 19.1242ZM158.484 21.7105L159.229 22.7625H158.615L157.958 21.7981H157.388V22.7625H156.862V20.0009H158.089C158.747 20.0009 159.141 20.3077 159.141 20.8776C159.097 21.3598 158.834 21.6228 158.484 21.7105ZM158.045 20.4831H157.388V21.3598H158.045C158.396 21.3598 158.571 21.1844 158.571 20.9214C158.571 20.6584 158.352 20.4831 158.045 20.4831Z" fill="#1ED760"/>
</g>
</svg>
