<svg width="176" height="175" viewBox="0 0 176 175" fill="none" xmlns="http://www.w3.org/2000/svg">
<g id="Group 14">
<circle id="Ellipse 5" cx="88" cy="87.5" r="87" stroke="black"/>
<g id="Mask group">
<mask id="mask0_145_30" style="mask-type:alpha" maskUnits="userSpaceOnUse" x="0" y="0" width="176" height="175">
<circle id="Ellipse 4" cx="88" cy="87.5" r="87.5" fill="#D9D9D9"/>
</mask>
<g mask="url(#mask0_145_30)">
<g id="Group 13">
<path id="Vector" d="M72.8187 94.456C81.6422 102.833 91.7322 112.577 90.8731 124.714C90.622 128.252 89.2928 131.845 86.6074 134.163C82.812 137.439 76.8847 137.788 73.7406 141.692C70.904 145.213 71.4987 150.67 74.2416 154.263C76.9856 157.856 81.4014 159.82 85.8286 160.735C95.9484 162.826 106.985 159.866 114.702 152.993C115.921 151.907 117.088 150.69 117.695 149.176C118.761 146.515 117.918 143.51 117.013 140.791C113.975 131.651 110.265 122.071 112.341 112.667C114.673 102.109 123.739 94.4036 128.074 84.4987C132.107 75.2853 131.679 64.2374 126.947 55.3636C125.17 52.0311 122.696 48.8993 119.277 47.2994C116.05 45.789 112.345 45.7942 108.784 45.9032C95.1789 46.3209 70.7713 44.8466 61.1669 56.7515C50.8948 69.4826 63.4726 85.5811 72.8187 94.456Z" fill="#FFE7FB"/>
<path id="Vector_2" d="M59.5603 163.678C58.1991 161.672 56.6908 159.676 54.6135 158.424C49.9539 155.617 43.6264 157.442 39.6797 161.187C35.732 164.932 33.6125 170.158 31.6052 175.216C30.5414 177.893 29.4786 180.572 28.4158 183.25C27.0659 186.65 25.7027 190.107 25.3621 193.749C25.0226 197.391 25.8405 201.309 28.3643 203.957C30.527 206.228 33.6526 207.305 36.7176 207.971C43.8517 209.518 51.2389 209.257 58.5355 208.988C84.4988 208.03 68.3231 176.591 59.5603 163.678Z" fill="#6987FF"/>
<path id="Vector_3" d="M113.173 181.792C113.95 177.47 114.193 173.065 115.04 168.756C115.954 164.102 117.573 159.587 119.823 155.413C121.058 153.122 122.661 150.788 125.118 149.935C127.517 149.103 130.212 149.901 132.361 151.252C138.858 155.334 141.269 163.476 143.18 170.906C145.492 179.894 147.804 188.881 150.116 197.868C150.583 199.682 150.837 202.055 149.224 203.006C148.594 203.375 147.829 203.406 147.098 203.425C136.359 203.708 123.541 205.21 112.975 203.07C106.253 201.709 107.372 202.405 109.091 195.828C110.329 191.091 112.299 186.658 113.173 181.792Z" fill="#6987FF"/>
<path id="Vector_4" d="M80.578 191.098C81.7334 194.042 83.0369 197.173 85.6832 198.903C89.3428 201.298 94.5293 200.057 97.6961 197.041C100.863 194.023 102.371 189.665 103.253 185.381C104.135 181.097 104.506 176.686 105.923 172.548C107.318 168.468 109.723 164.657 110.113 160.362C110.219 159.205 109.988 157.76 108.892 157.373C108.412 157.205 107.883 157.296 107.385 157.403C103.253 158.297 99.3474 160.211 95.1414 160.643C87.8736 161.389 76.0129 152.687 72.309 161.068C68.8881 168.808 77.8124 184.056 80.578 191.098Z" fill="#DAC8FF"/>
<path id="Vector_5" d="M76.0885 90.6711C73.5874 90.6948 71.0873 90.7195 68.5851 90.7442C67.8669 90.7514 67.0511 90.8018 66.5912 91.3533C66.0232 92.0323 66.3597 93.1383 67.0531 93.6878C67.7476 94.2361 68.6694 94.376 69.546 94.4964C70.6737 94.6518 71.8003 94.8061 72.9279 94.9625C74.5175 95.1806 76.32 95.3421 77.5444 94.3071C78.7687 93.2711 78.3088 90.6485 76.71 90.7709" fill="#F03FA3"/>
<path id="Vector_6" d="M111.256 91.9268C108.755 91.9504 106.254 91.9751 103.754 91.9998C103.034 92.007 102.219 92.0574 101.758 92.6099C101.191 93.289 101.526 94.394 102.221 94.9423C102.914 95.4907 103.837 95.6306 104.714 95.751C105.84 95.9074 106.968 96.0617 108.095 96.2181C109.684 96.4362 111.487 96.5978 112.712 95.5627C113.936 94.5267 113.476 91.9041 111.877 92.0255" fill="#F03FA3"/>
<path id="Vector_7" d="M29.4129 200.587L34.5881 176.79C37.3145 164.248 44.9795 153.342 55.8545 146.52L75.9687 133.906L76.514 128.135L77.9338 113.227L77.975 112.805" stroke="black" stroke-miterlimit="10"/>
<path id="Vector_8" d="M142.618 97.9249C140.044 88.9142 131.158 43.4994 131.158 43.4994L111.602 42.486C120.291 50.1067 122.7 60.3232 122.7 60.3232C122.298 72.5656 120.405 82.2986 117.73 90.0459H117.72C114.633 99.0073 110.466 105.305 106.3 109.708C104.931 111.159 103.553 112.404 102.215 113.463C99.6326 115.532 97.1839 116.94 95.1571 117.876C91.8545 119.43 89.6218 119.77 89.6218 119.77C83.2429 117.384 78.1089 113.854 73.9729 109.708C55.8342 91.476 56.8527 61.0949 56.4001 60.3232C56.4001 60.3232 55.9895 47.8432 67.0107 40.1741L49.1013 39.2461C49.1013 39.2461 44.2379 66.91 41.1781 87.1692C38.1183 107.428 41.6545 120.772 55.1881 122.188C68.7216 123.604 120.052 122.188 120.052 122.188C120.052 122.188 149.55 122.188 142.618 97.9249Z" fill="black"/>
<path id="Vector_9" d="M102.194 113.288L102.215 113.463L102.781 119.452L104.149 133.906L110.898 138.145H110.919V138.156L124.263 146.52C135.138 153.343 142.803 164.248 145.53 176.79L148.75 191.615L150.705 200.588" stroke="black" stroke-miterlimit="10"/>
<path id="Vector_10" d="M69.1055 69.0234C69.1055 69.0234 75.0029 67.0141 80.9013 69.0234" stroke="black" stroke-width="2" stroke-miterlimit="10" stroke-linecap="round" stroke-linejoin="bevel"/>
<path id="Vector_11" d="M76.8911 77.8701C76.8911 79.5317 76.0454 80.8775 75.0031 80.8775C73.9619 80.8775 73.1162 79.5317 73.1162 77.8701C73.1162 76.2085 73.9619 74.8628 75.0031 74.8628C76.0454 74.8628 76.8911 76.2085 76.8911 77.8701Z" fill="black"/>
<path id="Vector_12" d="M110.74 69.0232C110.74 69.0232 104.842 67.0138 98.9445 69.0232" stroke="black" stroke-width="2" stroke-miterlimit="10" stroke-linecap="round" stroke-linejoin="bevel"/>
<path id="Vector_13" d="M102.954 77.8704C102.954 79.532 103.799 80.8777 104.841 80.8777C105.883 80.8777 106.729 79.532 106.729 77.8704C106.729 76.2088 105.883 74.863 104.841 74.863C103.799 74.863 102.954 76.2088 102.954 77.8704Z" fill="black"/>
<path id="Vector_14" d="M88.6109 77.9009C88.7292 78.1591 89.2457 82.5297 85.9431 85.3755C85.9431 85.3755 85.2599 88.2491 90.2138 88.3149" stroke="black" stroke-miterlimit="10"/>
<path id="Vector_15" d="M82.8289 97.2898C82.8289 97.2898 91.1492 100.048 97.5981 97.4318" stroke="black" stroke-miterlimit="10"/>
<path id="Vector_16" d="M57.4299 71.8162C57.4299 71.8162 50.5242 63.1286 46.9675 67.1566C43.4117 71.1845 50.4028 90.6958 61.3766 88.4107" stroke="black" stroke-miterlimit="10"/>
<path id="Vector_17" d="M51.4873 74.9663C51.4873 74.9663 56.6779 74.9951 58.891 79.1126" stroke="black" stroke-miterlimit="10"/>
<path id="Vector_18" d="M54.2412 79.1048C54.2412 79.1048 54.4069 77.331 57.7311 77.543" stroke="black" stroke-miterlimit="10"/>
<path id="Vector_19" d="M121.937 71.8165C121.937 71.8165 128.843 63.1288 132.398 67.1568C135.955 71.1848 128.963 90.696 117.99 88.4109" fill="#F7F6F2"/>
<path id="Vector_20" d="M128.073 74.9666C128.073 74.9666 122.882 74.9954 120.669 79.1128" stroke="black" stroke-miterlimit="10"/>
<path id="Vector_21" d="M125.318 79.1048C125.318 79.1048 125.152 77.331 121.828 77.543" stroke="black" stroke-miterlimit="10"/>
<path id="Vector_22" d="M56.4004 60.3232C56.8531 61.0949 55.8345 91.476 73.9733 109.708C78.1093 113.854 83.2433 117.384 89.6222 119.77C89.6222 119.77 91.8548 119.431 95.1574 117.876C97.1843 116.94 99.633 115.532 102.215 113.463C103.553 112.404 104.932 111.159 106.3 109.708C110.467 105.305 114.634 99.0072 117.72 90.0459H117.731C120.406 82.2986 122.299 72.5656 122.7 60.3232" stroke="black" stroke-miterlimit="10"/>
<path id="Vector_23" d="M114.529 50.6226C114.529 50.6226 93.1108 71.6719 57.4311 73.8747C57.4311 73.8747 46.4275 62.2229 49.1015 41.3042C51.7755 20.3855 96.9197 -3.53441 122.707 29.3365C122.707 29.3365 143.546 45.0781 121.936 73.8747C121.936 73.8747 123.179 68.5525 114.529 50.6226Z" fill="black"/>
<path id="Vector_24" d="M65.1602 140.684C65.1602 140.684 77.9303 154.53 91.253 158.516C91.253 158.516 105.486 156.509 114.174 140.192" stroke="black" stroke-miterlimit="10"/>
<path id="Vector_25" d="M62.7874 142.173C62.7874 142.173 72.3784 157.047 90.9379 161.765C90.9379 161.765 111.4 156.927 116.503 141.653" stroke="black" stroke-miterlimit="10"/>
<path id="Vector_26" d="M61.3945 143.045C61.3945 143.045 71.75 175.239 76.3109 200.587" stroke="black" stroke-miterlimit="10"/>
<path id="Vector_27" d="M50.8284 150.154C50.8284 150.154 46.5854 164.754 55.236 174.033C63.8856 183.313 74.3604 190.841 74.3604 190.841" stroke="black" stroke-miterlimit="10"/>
<path id="Vector_28" d="M118.734 143.045C118.734 143.045 108.377 175.239 103.817 200.587" stroke="black" stroke-miterlimit="10"/>
<path id="Vector_29" d="M129.303 150.154C129.303 150.154 133.545 164.753 124.894 174.033C116.244 183.313 105.77 190.841 105.77 190.841" stroke="black" stroke-miterlimit="10"/>
<path id="Vector_30" d="M102.781 119.452C95.7337 121.859 83.48 125.862 76.5146 128.136L77.9345 113.228C81.268 115.851 85.1365 118.093 89.6223 119.77C89.6223 119.77 91.8549 119.432 95.1575 117.877C97.1844 116.941 99.6331 115.532 102.215 113.463L102.781 119.452Z" fill="black"/>
</g>
</g>
</g>
</g>
</svg>
