<svg width="175" height="175" viewBox="0 0 175 175" fill="none" xmlns="http://www.w3.org/2000/svg">
<g id="Group 15">
<circle id="Ellipse 5" cx="87.5" cy="87.5" r="87" stroke="black"/>
<g id="Mask group">
<mask id="mask0_145_71" style="mask-type:alpha" maskUnits="userSpaceOnUse" x="0" y="0" width="175" height="175">
<circle id="Ellipse 4" cx="87.5" cy="87.5" r="87.5" fill="#D9D9D9"/>
</mask>
<g mask="url(#mask0_145_71)">
<g id="Group 21">
<path id="Vector" d="M48.3501 97.6966C51.1687 102.47 55.1015 106.475 58.3861 110.941C63.9269 118.475 67.6015 127.369 68.9963 136.616C69.9466 142.912 70.344 150.272 75.5463 153.943C78.171 155.796 81.5167 156.251 84.7263 156.435C88.2616 156.639 92.1718 156.449 94.7815 154.054C98.139 150.973 97.9129 145.753 98.1925 141.205C98.8985 129.732 104.345 119.185 108.297 108.389C113.504 94.1667 116.202 79.0292 116.232 63.8831C116.244 57.7606 115.609 51.1056 111.455 46.6072C107.986 42.8502 102.731 41.361 97.6858 40.5244C83.5339 38.1771 63.7962 40.3337 56.7213 54.6774C50.9255 66.4296 41.3267 85.7998 48.3501 97.6966Z" fill="#FFE7FB"/>
<path id="Vector_2" d="M40.5847 185.001C44.0783 172.864 53.3547 161.526 65.8118 159.447C68.6133 158.98 71.584 159.009 74.1765 160.168C75.9238 160.949 77.4097 162.2 79.0135 163.245C82.9205 165.79 87.6118 167.112 92.2741 166.981C98.6516 166.804 104.923 163.996 111.229 164.974C119.373 166.238 125.257 173.448 129.005 180.788C135.697 193.901 138.147 209.137 135.903 223.687C135.642 225.358 65.4251 223.351 58.8408 223.312C50.3197 223.262 42.7627 224.003 39.3645 215.012C36.1195 206.427 38.1572 193.438 40.5847 185.001Z" fill="#C3C62B"/>
<path id="Vector_3" d="M122.359 83.9242C119.506 89.7746 118.441 96.4831 119.339 102.931C123.624 104.243 128.077 101.657 131.584 98.8678C133.883 97.038 136.128 94.9961 137.41 92.3521C138.695 89.7082 138.83 86.3271 137.059 83.982C135.431 81.8266 132.525 80.9567 129.827 81.112C127.131 81.2674 124.572 82.2947 122.068 83.3082" fill="#FFE7FB"/>
<path id="Vector_4" d="M88.4909 102.752C88.8305 102.832 87.6606 107.182 82.7476 107.1C77.8346 107.019 74.2318 108.983 74.3143 117.582L72.1599 116.27C72.1599 116.27 67.6219 97.831 88.4909 102.752Z" fill="black"/>
<path id="Vector_5" d="M88.6007 102.752C88.26 102.832 89.4298 107.182 94.3428 107.1C99.2558 107.019 102.859 108.983 102.777 117.582L104.932 116.27C104.932 116.27 109.469 97.831 88.6007 102.752Z" fill="black"/>
<path id="Vector_6" d="M54.5682 66.7737C54.5682 66.7737 54.3753 78.9748 56.8501 92.8492C59.0784 105.341 63.46 119.182 72.084 126.681C76.08 130.151 80.9758 132.262 86.9858 132.272C91.7639 132.272 95.8884 131.352 99.4451 129.713C100.249 129.347 101.02 128.941 101.759 128.501C102.006 128.363 102.252 128.212 102.488 128.051C102.98 127.752 103.452 127.43 103.912 127.088C104.105 126.949 104.287 126.81 104.48 126.669C104.748 126.456 105.016 126.252 105.273 126.028C105.702 125.674 106.119 125.309 106.526 124.924C106.976 124.505 107.426 124.067 107.855 123.606C108.198 123.242 108.54 122.855 108.873 122.471C108.905 122.439 108.937 122.396 108.969 122.363C109.269 122.01 109.558 121.645 109.837 121.282C109.88 121.239 109.922 121.185 109.955 121.142C115.782 113.558 118.718 103.187 120.132 93.5231C120.143 93.492 120.143 93.4802 120.143 93.4802C122.21 79.3497 121.053 66.7737 121.053 66.7737" stroke="black" stroke-miterlimit="10"/>
<path id="Vector_7" d="M75.6084 129.08L75.5977 129.22L74.4407 141.411L73.4765 151.598L58.3497 161.081L52.5325 164.734C51.9004 165.13 51.2791 165.537 50.6684 165.966C40.3304 173.111 33.0669 183.931 30.3887 196.261L25 221.041" stroke="black" stroke-miterlimit="10"/>
<path id="Vector_8" d="M99.4453 129.713L99.7667 133.109L101.524 151.598L118.461 162.226L122.468 164.734C123.732 165.525 124.964 166.372 126.142 167.283C135.516 174.397 142.094 184.66 144.611 196.261L150 221.041" stroke="black" stroke-miterlimit="10"/>
<path id="Vector_9" d="M55.5963 85.7811C55.5963 85.7811 48.0619 75.1817 43.647 79.6715C39.2333 84.1613 46.1871 107.432 59.1702 105.448" stroke="black" stroke-miterlimit="10"/>
<path id="Vector_10" d="M121.071 85.4786C121.071 85.4786 128.246 74.6328 132.808 78.9715C137.371 83.3103 131.201 106.802 118.159 105.255" stroke="black" stroke-miterlimit="10"/>
<path id="Vector_11" d="M48.443 89.0945C48.443 89.0945 54.5141 89.4544 56.8463 94.4114" stroke="black" stroke-miterlimit="10"/>
<path id="Vector_12" d="M51.4062 94.1082C51.4062 94.1082 51.7116 92.0438 55.5876 92.5002" stroke="black" stroke-miterlimit="10"/>
<path id="Vector_13" d="M128.471 88.5535C128.471 88.5535 122.415 89.1159 120.251 94.1478" stroke="black" stroke-miterlimit="10"/>
<path id="Vector_14" d="M125.678 93.6635C125.678 93.6635 125.304 91.6098 121.444 92.1968" stroke="black" stroke-miterlimit="10"/>
<path id="Vector_15" d="M120.251 87.4038C120.251 87.4038 116.484 85.7658 116.484 81.8352C116.484 77.9046 118.449 70.8629 115.829 66.7684C113.21 62.6749 109.442 58.9082 109.442 58.9082C109.442 58.9082 86.6788 53.3407 60.8036 62.0193C60.8036 62.0193 56.9984 65.5075 58.0193 72.276C60.4758 88.5534 55.8424 87.466 55.8424 87.466C55.8424 87.466 48.4429 76.7583 50.7462 66.1963C50.7462 66.1963 36.8611 52.9582 47.4573 32.296C59.171 9.45042 99.5591 11.1463 113.317 26.2838C124.362 38.4378 120.251 46.4618 120.251 46.4618C120.251 46.4618 135.975 60.5463 120.251 87.4038Z" fill="black"/>
<path id="Vector_16" d="M67.1157 56.1227C65.047 53.6126 63.4647 50.7137 62.2316 47.6851C60.9996 44.649 60.2508 41.4094 59.9851 38.1301C59.8051 36.49 59.9251 34.8402 59.9765 33.1957C60.2572 31.5727 60.359 29.9164 60.9086 28.3566C61.1582 27.5735 61.3135 26.7636 61.6392 26.0105L62.5959 23.75C62.8905 22.9862 63.3468 22.3016 63.7593 21.5999C64.1728 20.8982 64.5982 20.2061 65.0277 19.5205C63.6586 22.4623 62.2981 25.3955 61.7078 28.5548C61.2889 30.0986 61.201 31.7012 60.9878 33.276C60.9718 34.8691 60.8593 36.461 61.0521 38.0476C61.2846 41.223 61.9767 44.363 62.9998 47.399C63.529 48.9117 64.1182 50.4083 64.822 51.8567C65.4734 53.333 66.2672 54.7396 67.1157 56.1227Z" fill="white"/>
<path id="Vector_17" d="M74.4819 15.8914C73.3635 17.7244 72.6575 19.7363 72.049 21.7492C71.4715 23.7772 71.0837 25.8523 70.8352 27.9446L70.6606 29.5162L70.5684 31.0974C70.4624 32.1516 70.517 33.2111 70.4699 34.2717C70.4624 35.3323 70.5192 36.394 70.5224 37.461C70.5609 38.5269 70.6552 39.5907 70.6702 40.6696C70.4142 39.6272 70.217 38.5709 69.9996 37.5135C69.8699 36.4465 69.6996 35.3784 69.6343 34.3006C69.4982 32.1473 69.5046 29.9726 69.7714 27.8171C70.0478 25.667 70.4967 23.5276 71.2573 21.4889C72.0158 19.462 73.0239 17.4844 74.4819 15.8914Z" fill="white"/>
<path id="Vector_18" d="M73.1259 28.2811C72.9952 27.1209 73.0412 25.9585 73.1644 24.8058C73.2812 23.652 73.5126 22.51 73.834 21.3883C74.1725 20.272 74.5807 19.1643 75.1935 18.1498C75.7891 17.1396 76.5508 16.1743 77.5525 15.5615C76.8604 16.5011 76.3751 17.4984 75.9413 18.5226C75.5138 19.5478 75.1699 20.6116 74.8625 21.6883C74.2143 23.8384 73.7483 26.0442 73.1259 28.2811Z" fill="white"/>
<path id="Vector_19" d="M87.0578 28.281C86.9731 30.6068 86.821 32.9058 86.8563 35.2038C86.8938 37.4996 87.0085 39.7868 87.3106 42.0505C87.6148 44.3131 88.1237 46.535 88.7847 48.7193C89.1639 49.7928 89.5239 50.8823 90.0424 51.9043C90.4441 52.9917 91.1041 53.9334 91.6205 54.9843C90.1153 53.2145 88.894 51.1812 88.0091 49C87.1413 46.8146 86.5853 44.5145 86.2478 42.1919C85.9661 39.8618 85.8772 37.5124 86.0357 35.1823C86.1064 34.0168 86.2361 32.8565 86.3957 31.7038C86.5842 30.5532 86.8081 29.4134 87.0578 28.281Z" fill="white"/>
<path id="Vector_20" d="M82.3463 57.5541C82.3463 57.5541 73.2498 60.4638 76.3202 66.7684C76.3202 66.7684 69.4563 56.1593 82.3463 57.5541Z" fill="black"/>
<path id="Vector_21" d="M63.7512 75.7553C64.3019 75.0482 64.9146 74.5576 65.5371 74.083L67.4033 74.158C68.6449 74.2308 69.8844 74.3723 71.1196 74.5833C72.357 74.7901 73.5858 75.1061 74.8017 75.4928C75.4059 75.7018 76.0112 75.9128 76.6026 76.1828C77.0075 76.8663 77.345 77.6183 77.5539 78.4432C76.7033 78.7368 76.0198 78.8771 75.3149 79.1288C74.8274 78.9028 74.3111 78.7239 73.7947 78.545C72.7491 78.214 71.6746 77.9333 70.569 77.7501C69.4656 77.5615 68.345 77.433 67.2169 77.3666C66.6523 77.343 66.0877 77.2991 65.5253 77.3291C64.9597 76.8459 64.3854 76.3852 63.7512 75.7553Z" fill="black"/>
<path id="Vector_22" d="M72.1606 84.998C72.1606 86.7271 71.2811 88.1294 70.1948 88.1294C69.1095 88.1294 68.23 86.7271 68.23 84.998C68.23 83.2678 69.1095 81.8655 70.1948 81.8655C71.2811 81.8655 72.1606 83.2678 72.1606 84.998Z" fill="black"/>
<path id="Vector_23" d="M110.618 74.9571C109.995 75.5902 109.452 76.0734 108.925 76.5758C108.379 76.5694 107.833 76.6412 107.288 76.699C106.198 76.8319 105.118 77.0547 104.067 77.3558C103.014 77.6493 101.989 78.0296 101.015 78.5031C100.52 78.7259 100.049 78.9906 99.5839 79.2637C98.8586 79.103 98.1569 79.0484 97.2827 78.8459C97.3995 78.006 97.6341 77.2272 97.9437 76.4998C98.4954 76.1762 99.0536 75.8656 99.6332 75.602C100.779 75.046 101.973 74.6036 103.19 74.264C104.405 73.9169 105.642 73.6619 106.892 73.5098C107.517 73.4273 108.146 73.3941 108.777 73.333C109.428 73.784 110.066 74.2533 110.618 74.9571Z" fill="black"/>
<path id="Vector_24" d="M102.511 84.998C102.511 86.7271 103.391 88.1294 104.476 88.1294C105.562 88.1294 106.442 86.7271 106.442 84.998C106.442 83.2678 105.562 81.8655 104.476 81.8655C103.391 81.8655 102.511 83.2678 102.511 84.998Z" fill="black"/>
<path id="Vector_25" d="M84.827 83.5903C84.9502 84.081 85.1955 91.5105 81.6345 99.8024C81.6345 99.8024 85.3884 102.307 89.9328 99.5238" stroke="black" stroke-miterlimit="10"/>
<path id="Vector_26" d="M80.2318 109.714C80.2318 109.714 88.4991 111.494 97.2837 110.192" stroke="black" stroke-miterlimit="10"/>
<path id="Vector_27" d="M84.9293 113.472C84.9293 113.472 89.5991 114.25 92.0524 112.94" stroke="black" stroke-miterlimit="10"/>
<path id="Vector_28" d="M120.132 93.5235C118.718 103.188 115.783 113.558 109.955 121.143C107.159 124.764 103.709 127.753 99.4455 129.713C95.8888 131.352 91.7643 132.273 86.9862 132.273C80.9762 132.263 76.0804 130.151 72.0844 126.681C63.4604 119.182 59.0788 105.341 56.8505 92.8496C56.8505 92.8496 62.5605 106.487 66.6208 111.147C70.6703 115.818 74.677 119.417 88.9468 119.664C103.217 119.417 107.234 115.818 111.283 111.147C115.204 106.637 119.843 94.2841 120.132 93.5235Z" fill="black"/>
<path id="Vector_29" d="M73.4735 151.599L89.933 169.123L101.527 151.599" stroke="black" stroke-miterlimit="10"/>
<path id="Vector_30" d="M67.2391 155.51L74.8872 171.251L85.3892 164.284" stroke="black" stroke-miterlimit="10"/>
<path id="Vector_31" d="M94.3002 162.522L103.219 171.251L110.845 157.443" stroke="black" stroke-miterlimit="10"/>
<path id="Vector_32" d="M89.9331 169.123H94.2997C94.2997 169.123 95.1943 177.147 90.7719 178.621L89.9331 221.036" stroke="black" stroke-miterlimit="10"/>
<path id="Vector_33" d="M61.9384 221.042H53.4216L50.6683 165.966C51.279 165.537 51.9003 165.13 52.5324 164.734L58.3496 161.081L61.9384 221.042Z" fill="black"/>
<path id="Vector_34" d="M126.142 167.283L123.463 221.041H114.947L118.46 162.227L122.467 164.734C123.731 165.525 124.963 166.372 126.142 167.283Z" fill="black"/>
<path id="Vector_35" d="M99.7669 133.109C90.8965 136.076 79.1657 139.89 74.4413 141.411L75.5983 129.22C78.8658 131.159 82.6368 132.262 86.9862 132.272C91.7643 132.272 95.8888 131.352 99.4455 129.713L99.7669 133.109Z" fill="black"/>
</g>
</g>
</g>
</g>
</svg>
